<svg xmlns="http://www.w3.org/2000/svg" xmlns:xlink="http://www.w3.org/1999/xlink" width="1362.667" height="822.627" viewBox="0 0 1362.667 822.627"><defs><clipPath id="a"><rect width="1362.667" height="822.627" transform="translate(530.004 3698.393)" fill="#f2e5da"/></clipPath><linearGradient id="b" x1="3.709" y1="0.501" x2="4.703" y2="0.501" gradientUnits="objectBoundingBox"><stop offset="0" stop-color="#3c925a"/><stop offset="0.121" stop-color="#5b9e5e"/><stop offset="0.259" stop-color="#78a962"/><stop offset="0.407" stop-color="#8eb265"/><stop offset="0.567" stop-color="#9eb868"/><stop offset="0.749" stop-color="#a8bb69"/><stop offset="1" stop-color="#abbd6a"/></linearGradient><linearGradient id="c" x1="1.781" y1="0.397" x2="2.742" y2="0.397" xlink:href="#b"/></defs><g transform="translate(-530.004 -3698.393)" clip-path="url(#a)"><path d="M384.275,4095.728c14.46-37.67,187.383-94.434,276.326,264.667,41.318,166.817,197.089,46.517,301.7,78.229,85.251,22.285,212.554,131.788,139.662,316.43L340,4699.147Z" fill="url(#b)"/><path d="M1374.634,3593.012c-33.879,21.914-53.776,202.826,315.949,215.83,171.751,6.041,86.147,183.263,138.74,279.087,39.383,78.825,172.778,180.821,338.426,71.429l-211.783-734.063Z" fill="url(#c)"/></g></svg>