<svg xmlns="http://www.w3.org/2000/svg" width="24" height="24" viewBox="0 0 24 24">
  <defs>
    <style>
      .cls-1 {
        fill: #007d4a;
        fill-rule: evenodd;
      }
    </style>
  </defs>
  <path id="safari-pinned-tab" class="cls-1" d="M791,492.18a5.051,5.051,0,0,0-1.406-3.708,9.36,9.36,0,0,0-3.357-2.168A44.315,44.315,0,0,0,781.2,484.8q-2.133-.562-3.267-0.927a6.083,6.083,0,0,1-1.882-.944,1.779,1.779,0,0,1,.091-2.962,4.069,4.069,0,0,1,2.2-.53,4.194,4.194,0,0,1,2.518.679,2.878,2.878,0,0,1,1.156,1.837h8.393a6.72,6.72,0,0,0-3.561-5.1A16.744,16.744,0,0,0,778.343,475a19.492,19.492,0,0,0-5.875.811,9.294,9.294,0,0,0-4.015,2.334A5.052,5.052,0,0,0,767,481.752a4.992,4.992,0,0,0,1.384,3.658,8.9,8.9,0,0,0,3.312,2.119A49.463,49.463,0,0,0,776.664,489q2.086,0.53,3.267.91a6.7,6.7,0,0,1,1.973.977,1.8,1.8,0,0,1,.794,1.489,1.843,1.843,0,0,1-.862,1.589,4.087,4.087,0,0,1-2.359.6,4.9,4.9,0,0,1-2.835-.761,2.9,2.9,0,0,1-1.293-2.086h-8.257a6.653,6.653,0,0,0,3.811,5.363A18.324,18.324,0,0,0,779.8,499a17.727,17.727,0,0,0,6.1-.927,8.737,8.737,0,0,0,3.811-2.483A5.217,5.217,0,0,0,791,492.18h0Z" transform="translate(-767 -475)"/>
</svg>
