<svg width="118" height="96" viewBox="0 0 118 96" fill="none" xmlns="http://www.w3.org/2000/svg">
<path d="M47.5952 18.0312H109.153L93.7632 51.8878H53.751L47.5952 18.0312Z" stroke="#5C5C5C" stroke-width="2" stroke-linecap="round" stroke-linejoin="round"/>
<path d="M53.7554 51.8868H48.5231C46.0608 51.8868 43.9062 54.0413 43.9062 56.5036C43.9062 58.9659 46.0608 61.1204 48.5231 61.1204H106.079" stroke="#5C5C5C" stroke-width="2" stroke-linecap="round" stroke-linejoin="round"/>
<path d="M32.2063 18.0309C35.606 18.0309 38.362 15.2749 38.362 11.8752C38.362 8.47548 35.606 5.71947 32.2063 5.71947C28.8066 5.71947 26.0505 8.47548 26.0505 11.8752C26.0505 15.2749 28.8066 18.0309 32.2063 18.0309Z" stroke="#5C5C5C" stroke-width="2" stroke-linecap="round" stroke-linejoin="round"/>
<path d="M44.5205 76.5101C47.9202 76.5101 50.6762 73.7541 50.6762 70.3543C50.6762 66.9546 47.9202 64.1986 44.5205 64.1986C41.1208 64.1986 38.3647 66.9546 38.3647 70.3543C38.3647 73.7541 41.1208 76.5101 44.5205 76.5101Z" stroke="#5C5C5C" stroke-width="2" stroke-linecap="round" stroke-linejoin="round"/>
<path d="M99.916 76.5101C103.316 76.5101 106.072 73.7541 106.072 70.3543C106.072 66.9546 103.316 64.1986 99.916 64.1986C96.5163 64.1986 93.7603 66.9546 93.7603 70.3543C93.7603 73.7541 96.5163 76.5101 99.916 76.5101Z" stroke="#5C5C5C" stroke-width="2" stroke-linecap="round" stroke-linejoin="round"/>
<path d="M38.3647 11.8757C44.5205 11.8757 47.5984 14.0302 47.5984 18.0315" stroke="#5C5C5C" stroke-width="2" stroke-linecap="round" stroke-linejoin="round"/>
<path d="M50.6711 30.343H102.995" stroke="#5C5C5C" stroke-width="2" stroke-linecap="round" stroke-linejoin="round"/>
<circle cx="99.0723" cy="19.1542" r="18.8529" fill="url(#paint0_linear)"/>
<path d="M102.281 26.8862H99.2513V15.4601L95.6345 16.5576V14.1473L101.956 11.9318H102.281V26.8862Z" fill="#5C5C5C"/>
<circle cx="44.1195" cy="51.8111" r="43.2016" fill="url(#paint1_linear)" style="mix-blend-mode:multiply"/>
<defs>
<linearGradient id="paint0_linear" x1="117.435" y1="1.21317" x2="75.1033" y2="13.6901" gradientUnits="userSpaceOnUse">
<stop stop-color="#FFC000"/>
<stop offset="1" stop-color="#FF8A00"/>
</linearGradient>
<linearGradient id="paint1_linear" x1="86.1979" y1="10.6991" x2="-10.8059" y2="39.2902" gradientUnits="userSpaceOnUse">
<stop stop-color="#FFC000"/>
<stop offset="1" stop-color="#FF8A00"/>
</linearGradient>
</defs>
</svg>
