<svg width="132" height="101" viewBox="0 0 132 101" fill="none" xmlns="http://www.w3.org/2000/svg">
<path d="M64.6115 25.993C73.536 25.993 80.8855 33.3424 80.8855 42.2668C80.8855 45.1541 80.0981 48.0413 78.5232 50.6662L77.7357 52.2413L79.3106 57.2283C79.8356 59.0657 81.148 60.3783 82.9854 61.4283C84.5603 62.2157 85.6102 63.7909 85.6102 65.6283V66.678C85.6102 68.7778 83.7728 70.6152 81.673 70.6152H47.5501C45.4502 70.6152 43.6128 68.7778 43.6128 66.678V65.6283C43.6128 63.7909 44.6627 62.2157 46.2376 61.4283C47.8125 60.6408 49.125 59.0657 49.9124 57.2283L51.4873 52.2413L50.6999 50.6662C45.9751 43.0541 48.6 32.8173 56.212 28.355C58.8369 26.7801 61.7242 25.993 64.6115 25.993Z" stroke="#5C5C5C" stroke-width="2" stroke-linecap="round" stroke-linejoin="round"/>
<path d="M74.5878 78.4888H54.114" stroke="#5C5C5C" stroke-width="2" stroke-linecap="round" stroke-linejoin="round"/>
<path d="M69.3357 86.3632H59.3613" stroke="#5C5C5C" stroke-width="2" stroke-linecap="round" stroke-linejoin="round"/>
<path d="M59.3613 25.9915V23.3667C59.3613 20.4794 61.7237 18.117 64.611 18.117C67.4983 18.117 69.8607 20.4794 69.8607 23.3667V25.9915" stroke="#5C5C5C" stroke-width="2" stroke-linecap="round" stroke-linejoin="round"/>
<circle cx="109.607" cy="23.2099" r="22.3111" fill="url(#paint0_linear)"/>
<path d="M113.403 30.8074H110.373V19.3813L106.757 20.4788V18.0685L113.078 15.853H113.403V30.8074Z" fill="#5C5C5C"/>
<circle cx="43.6134" cy="57.3939" r="43.2016" fill="url(#paint1_linear)" style="mix-blend-mode:multiply"/>
<defs>
<linearGradient id="paint0_linear" x1="131.338" y1="1.97789" x2="81.2412" y2="16.7435" gradientUnits="userSpaceOnUse">
<stop stop-color="#FFC000"/>
<stop offset="1" stop-color="#FF8A00"/>
</linearGradient>
<linearGradient id="paint1_linear" x1="85.6918" y1="16.2818" x2="-11.312" y2="44.8729" gradientUnits="userSpaceOnUse">
<stop stop-color="#FFC000"/>
<stop offset="1" stop-color="#FF8A00"/>
</linearGradient>
</defs>
</svg>
